%TF.GenerationSoftware,KiCad,Pcbnew,10.0.6*%
%TF.CreationDate,2026-10-06T00:58:21+05:30*%
%TF.ProjectId,USB_C_5V_Power_Board,5553425f-435f-4355-965f-506f7765725f,rev?*%
%TF.SameCoordinates,Original*%
%TF.FileFunction,Legend,Top*%
%TF.FilePolarity,Positive*%
%FSLAX46Y46*%
G04 Gerber Fmt 4.6, Leading zero omitted, Abs format (unit mm)*
G04 Created by KiCad (PCBNEW 10.0.6) date 2026-10-06 00:58:21*
%MOMM*%
%LPD*%
G01*
G04 APERTURE LIST*
%ADD10C,0.150000*%
%ADD11C,0.120000*%
G04 APERTURE END LIST*
D10*
X79833333Y-60954819D02*
X79500000Y-60478628D01*
X79261905Y-60954819D02*
X79261905Y-59954819D01*
X79261905Y-59954819D02*
X79642857Y-59954819D01*
X79642857Y-59954819D02*
X79738095Y-60002438D01*
X79738095Y-60002438D02*
X79785714Y-60050057D01*
X79785714Y-60050057D02*
X79833333Y-60145295D01*
X79833333Y-60145295D02*
X79833333Y-60288152D01*
X79833333Y-60288152D02*
X79785714Y-60383390D01*
X79785714Y-60383390D02*
X79738095Y-60431009D01*
X79738095Y-60431009D02*
X79642857Y-60478628D01*
X79642857Y-60478628D02*
X79261905Y-60478628D01*
X80166667Y-59954819D02*
X80785714Y-59954819D01*
X80785714Y-59954819D02*
X80452381Y-60335771D01*
X80452381Y-60335771D02*
X80595238Y-60335771D01*
X80595238Y-60335771D02*
X80690476Y-60383390D01*
X80690476Y-60383390D02*
X80738095Y-60431009D01*
X80738095Y-60431009D02*
X80785714Y-60526247D01*
X80785714Y-60526247D02*
X80785714Y-60764342D01*
X80785714Y-60764342D02*
X80738095Y-60859580D01*
X80738095Y-60859580D02*
X80690476Y-60907200D01*
X80690476Y-60907200D02*
X80595238Y-60954819D01*
X80595238Y-60954819D02*
X80309524Y-60954819D01*
X80309524Y-60954819D02*
X80214286Y-60907200D01*
X80214286Y-60907200D02*
X80166667Y-60859580D01*
X92454819Y-47166666D02*
X91978628Y-47499999D01*
X92454819Y-47738094D02*
X91454819Y-47738094D01*
X91454819Y-47738094D02*
X91454819Y-47357142D01*
X91454819Y-47357142D02*
X91502438Y-47261904D01*
X91502438Y-47261904D02*
X91550057Y-47214285D01*
X91550057Y-47214285D02*
X91645295Y-47166666D01*
X91645295Y-47166666D02*
X91788152Y-47166666D01*
X91788152Y-47166666D02*
X91883390Y-47214285D01*
X91883390Y-47214285D02*
X91931009Y-47261904D01*
X91931009Y-47261904D02*
X91978628Y-47357142D01*
X91978628Y-47357142D02*
X91978628Y-47738094D01*
X91550057Y-46785713D02*
X91502438Y-46738094D01*
X91502438Y-46738094D02*
X91454819Y-46642856D01*
X91454819Y-46642856D02*
X91454819Y-46404761D01*
X91454819Y-46404761D02*
X91502438Y-46309523D01*
X91502438Y-46309523D02*
X91550057Y-46261904D01*
X91550057Y-46261904D02*
X91645295Y-46214285D01*
X91645295Y-46214285D02*
X91740533Y-46214285D01*
X91740533Y-46214285D02*
X91883390Y-46261904D01*
X91883390Y-46261904D02*
X92454819Y-46833332D01*
X92454819Y-46833332D02*
X92454819Y-46214285D01*
X112591666Y16635180D02*
X112591666Y15920895D01*
X112591666Y15920895D02*
X112544047Y15778038D01*
X112544047Y15778038D02*
X112448809Y15682800D01*
X112448809Y15682800D02*
X112305952Y15635180D01*
X112305952Y15635180D02*
X112210714Y15635180D01*
X113020238Y16539942D02*
X113067857Y16587561D01*
X113067857Y16587561D02*
X113163095Y16635180D01*
X113163095Y16635180D02*
X113401190Y16635180D01*
X113401190Y16635180D02*
X113496428Y16587561D01*
X113496428Y16587561D02*
X113544047Y16539942D01*
X113544047Y16539942D02*
X113591666Y16444704D01*
X113591666Y16444704D02*
X113591666Y16349466D01*
X113591666Y16349466D02*
X113544047Y16206609D01*
X113544047Y16206609D02*
X112972619Y15635180D01*
X112972619Y15635180D02*
X113591666Y15635180D01*
X46954819Y-64333333D02*
X47669104Y-64333333D01*
X47669104Y-64333333D02*
X47811961Y-64380952D01*
X47811961Y-64380952D02*
X47907200Y-64476190D01*
X47907200Y-64476190D02*
X47954819Y-64619047D01*
X47954819Y-64619047D02*
X47954819Y-64714285D01*
X46954819Y-63952380D02*
X46954819Y-63333333D01*
X46954819Y-63333333D02*
X47335771Y-63666666D01*
X47335771Y-63666666D02*
X47335771Y-63523809D01*
X47335771Y-63523809D02*
X47383390Y-63428571D01*
X47383390Y-63428571D02*
X47431009Y-63380952D01*
X47431009Y-63380952D02*
X47526247Y-63333333D01*
X47526247Y-63333333D02*
X47764342Y-63333333D01*
X47764342Y-63333333D02*
X47859580Y-63380952D01*
X47859580Y-63380952D02*
X47907200Y-63428571D01*
X47907200Y-63428571D02*
X47954819Y-63523809D01*
X47954819Y-63523809D02*
X47954819Y-63809523D01*
X47954819Y-63809523D02*
X47907200Y-63904761D01*
X47907200Y-63904761D02*
X47859580Y-63952380D01*
X61359580Y-54166666D02*
X61407200Y-54214285D01*
X61407200Y-54214285D02*
X61454819Y-54357142D01*
X61454819Y-54357142D02*
X61454819Y-54452380D01*
X61454819Y-54452380D02*
X61407200Y-54595237D01*
X61407200Y-54595237D02*
X61311961Y-54690475D01*
X61311961Y-54690475D02*
X61216723Y-54738094D01*
X61216723Y-54738094D02*
X61026247Y-54785713D01*
X61026247Y-54785713D02*
X60883390Y-54785713D01*
X60883390Y-54785713D02*
X60692914Y-54738094D01*
X60692914Y-54738094D02*
X60597676Y-54690475D01*
X60597676Y-54690475D02*
X60502438Y-54595237D01*
X60502438Y-54595237D02*
X60454819Y-54452380D01*
X60454819Y-54452380D02*
X60454819Y-54357142D01*
X60454819Y-54357142D02*
X60502438Y-54214285D01*
X60502438Y-54214285D02*
X60550057Y-54166666D01*
X61454819Y-53214285D02*
X61454819Y-53785713D01*
X61454819Y-53499999D02*
X60454819Y-53499999D01*
X60454819Y-53499999D02*
X60597676Y-53595237D01*
X60597676Y-53595237D02*
X60692914Y-53690475D01*
X60692914Y-53690475D02*
X60740533Y-53785713D01*
X55833333Y-46859580D02*
X55785714Y-46907200D01*
X55785714Y-46907200D02*
X55642857Y-46954819D01*
X55642857Y-46954819D02*
X55547619Y-46954819D01*
X55547619Y-46954819D02*
X55404762Y-46907200D01*
X55404762Y-46907200D02*
X55309524Y-46811961D01*
X55309524Y-46811961D02*
X55261905Y-46716723D01*
X55261905Y-46716723D02*
X55214286Y-46526247D01*
X55214286Y-46526247D02*
X55214286Y-46383390D01*
X55214286Y-46383390D02*
X55261905Y-46192914D01*
X55261905Y-46192914D02*
X55309524Y-46097676D01*
X55309524Y-46097676D02*
X55404762Y-46002438D01*
X55404762Y-46002438D02*
X55547619Y-45954819D01*
X55547619Y-45954819D02*
X55642857Y-45954819D01*
X55642857Y-45954819D02*
X55785714Y-46002438D01*
X55785714Y-46002438D02*
X55833333Y-46050057D01*
X56214286Y-46050057D02*
X56261905Y-46002438D01*
X56261905Y-46002438D02*
X56357143Y-45954819D01*
X56357143Y-45954819D02*
X56595238Y-45954819D01*
X56595238Y-45954819D02*
X56690476Y-46002438D01*
X56690476Y-46002438D02*
X56738095Y-46050057D01*
X56738095Y-46050057D02*
X56785714Y-46145295D01*
X56785714Y-46145295D02*
X56785714Y-46240533D01*
X56785714Y-46240533D02*
X56738095Y-46383390D01*
X56738095Y-46383390D02*
X56166667Y-46954819D01*
X56166667Y-46954819D02*
X56785714Y-46954819D01*
X91370833Y-69284819D02*
X91037500Y-68808628D01*
X90799405Y-69284819D02*
X90799405Y-68284819D01*
X90799405Y-68284819D02*
X91180357Y-68284819D01*
X91180357Y-68284819D02*
X91275595Y-68332438D01*
X91275595Y-68332438D02*
X91323214Y-68380057D01*
X91323214Y-68380057D02*
X91370833Y-68475295D01*
X91370833Y-68475295D02*
X91370833Y-68618152D01*
X91370833Y-68618152D02*
X91323214Y-68713390D01*
X91323214Y-68713390D02*
X91275595Y-68761009D01*
X91275595Y-68761009D02*
X91180357Y-68808628D01*
X91180357Y-68808628D02*
X90799405Y-68808628D01*
X92227976Y-68618152D02*
X92227976Y-69284819D01*
X91989881Y-68237200D02*
X91751786Y-68951485D01*
X91751786Y-68951485D02*
X92370833Y-68951485D01*
X57738095Y-56454819D02*
X57738095Y-57264342D01*
X57738095Y-57264342D02*
X57785714Y-57359580D01*
X57785714Y-57359580D02*
X57833333Y-57407200D01*
X57833333Y-57407200D02*
X57928571Y-57454819D01*
X57928571Y-57454819D02*
X58119047Y-57454819D01*
X58119047Y-57454819D02*
X58214285Y-57407200D01*
X58214285Y-57407200D02*
X58261904Y-57359580D01*
X58261904Y-57359580D02*
X58309523Y-57264342D01*
X58309523Y-57264342D02*
X58309523Y-56454819D01*
X59309523Y-57454819D02*
X58738095Y-57454819D01*
X59023809Y-57454819D02*
X59023809Y-56454819D01*
X59023809Y-56454819D02*
X58928571Y-56597676D01*
X58928571Y-56597676D02*
X58833333Y-56692914D01*
X58833333Y-56692914D02*
X58738095Y-56740533D01*
X83870833Y-68624819D02*
X83537500Y-68148628D01*
X83299405Y-68624819D02*
X83299405Y-67624819D01*
X83299405Y-67624819D02*
X83680357Y-67624819D01*
X83680357Y-67624819D02*
X83775595Y-67672438D01*
X83775595Y-67672438D02*
X83823214Y-67720057D01*
X83823214Y-67720057D02*
X83870833Y-67815295D01*
X83870833Y-67815295D02*
X83870833Y-67958152D01*
X83870833Y-67958152D02*
X83823214Y-68053390D01*
X83823214Y-68053390D02*
X83775595Y-68101009D01*
X83775595Y-68101009D02*
X83680357Y-68148628D01*
X83680357Y-68148628D02*
X83299405Y-68148628D01*
X84775595Y-67624819D02*
X84299405Y-67624819D01*
X84299405Y-67624819D02*
X84251786Y-68101009D01*
X84251786Y-68101009D02*
X84299405Y-68053390D01*
X84299405Y-68053390D02*
X84394643Y-68005771D01*
X84394643Y-68005771D02*
X84632738Y-68005771D01*
X84632738Y-68005771D02*
X84727976Y-68053390D01*
X84727976Y-68053390D02*
X84775595Y-68101009D01*
X84775595Y-68101009D02*
X84823214Y-68196247D01*
X84823214Y-68196247D02*
X84823214Y-68434342D01*
X84823214Y-68434342D02*
X84775595Y-68529580D01*
X84775595Y-68529580D02*
X84727976Y-68577200D01*
X84727976Y-68577200D02*
X84632738Y-68624819D01*
X84632738Y-68624819D02*
X84394643Y-68624819D01*
X84394643Y-68624819D02*
X84299405Y-68577200D01*
X84299405Y-68577200D02*
X84251786Y-68529580D01*
X77833333Y-53284819D02*
X77500000Y-52808628D01*
X77261905Y-53284819D02*
X77261905Y-52284819D01*
X77261905Y-52284819D02*
X77642857Y-52284819D01*
X77642857Y-52284819D02*
X77738095Y-52332438D01*
X77738095Y-52332438D02*
X77785714Y-52380057D01*
X77785714Y-52380057D02*
X77833333Y-52475295D01*
X77833333Y-52475295D02*
X77833333Y-52618152D01*
X77833333Y-52618152D02*
X77785714Y-52713390D01*
X77785714Y-52713390D02*
X77738095Y-52761009D01*
X77738095Y-52761009D02*
X77642857Y-52808628D01*
X77642857Y-52808628D02*
X77261905Y-52808628D01*
X78785714Y-53284819D02*
X78214286Y-53284819D01*
X78500000Y-53284819D02*
X78500000Y-52284819D01*
X78500000Y-52284819D02*
X78404762Y-52427676D01*
X78404762Y-52427676D02*
X78309524Y-52522914D01*
X78309524Y-52522914D02*
X78214286Y-52570533D01*
X71900057Y-49032738D02*
X71852438Y-49127976D01*
X71852438Y-49127976D02*
X71757200Y-49223214D01*
X71757200Y-49223214D02*
X71614342Y-49366071D01*
X71614342Y-49366071D02*
X71566723Y-49461309D01*
X71566723Y-49461309D02*
X71566723Y-49556547D01*
X71804819Y-49508928D02*
X71757200Y-49604166D01*
X71757200Y-49604166D02*
X71661961Y-49699404D01*
X71661961Y-49699404D02*
X71471485Y-49747023D01*
X71471485Y-49747023D02*
X71138152Y-49747023D01*
X71138152Y-49747023D02*
X70947676Y-49699404D01*
X70947676Y-49699404D02*
X70852438Y-49604166D01*
X70852438Y-49604166D02*
X70804819Y-49508928D01*
X70804819Y-49508928D02*
X70804819Y-49318452D01*
X70804819Y-49318452D02*
X70852438Y-49223214D01*
X70852438Y-49223214D02*
X70947676Y-49127976D01*
X70947676Y-49127976D02*
X71138152Y-49080357D01*
X71138152Y-49080357D02*
X71471485Y-49080357D01*
X71471485Y-49080357D02*
X71661961Y-49127976D01*
X71661961Y-49127976D02*
X71757200Y-49223214D01*
X71757200Y-49223214D02*
X71804819Y-49318452D01*
X71804819Y-49318452D02*
X71804819Y-49508928D01*
X71804819Y-48127976D02*
X71804819Y-48699404D01*
X71804819Y-48413690D02*
X70804819Y-48413690D01*
X70804819Y-48413690D02*
X70947676Y-48508928D01*
X70947676Y-48508928D02*
X71042914Y-48604166D01*
X71042914Y-48604166D02*
X71090533Y-48699404D01*
X85134819Y-59083333D02*
X85849104Y-59083333D01*
X85849104Y-59083333D02*
X85991961Y-59130952D01*
X85991961Y-59130952D02*
X86087200Y-59226190D01*
X86087200Y-59226190D02*
X86134819Y-59369047D01*
X86134819Y-59369047D02*
X86134819Y-59464285D01*
X86134819Y-58083333D02*
X86134819Y-58654761D01*
X86134819Y-58369047D02*
X85134819Y-58369047D01*
X85134819Y-58369047D02*
X85277676Y-58464285D01*
X85277676Y-58464285D02*
X85372914Y-58559523D01*
X85372914Y-58559523D02*
X85420533Y-58654761D01*
X74166666Y-47761009D02*
X73833333Y-47761009D01*
X73833333Y-48284819D02*
X73833333Y-47284819D01*
X73833333Y-47284819D02*
X74309523Y-47284819D01*
X75214285Y-48284819D02*
X74642857Y-48284819D01*
X74928571Y-48284819D02*
X74928571Y-47284819D01*
X74928571Y-47284819D02*
X74833333Y-47427676D01*
X74833333Y-47427676D02*
X74738095Y-47522914D01*
X74738095Y-47522914D02*
X74642857Y-47570533D01*
X87261905Y-77454819D02*
X87261905Y-76454819D01*
X87261905Y-76454819D02*
X87500000Y-76454819D01*
X87500000Y-76454819D02*
X87642857Y-76502438D01*
X87642857Y-76502438D02*
X87738095Y-76597676D01*
X87738095Y-76597676D02*
X87785714Y-76692914D01*
X87785714Y-76692914D02*
X87833333Y-76883390D01*
X87833333Y-76883390D02*
X87833333Y-77026247D01*
X87833333Y-77026247D02*
X87785714Y-77216723D01*
X87785714Y-77216723D02*
X87738095Y-77311961D01*
X87738095Y-77311961D02*
X87642857Y-77407200D01*
X87642857Y-77407200D02*
X87500000Y-77454819D01*
X87500000Y-77454819D02*
X87261905Y-77454819D01*
X88166667Y-76454819D02*
X88785714Y-76454819D01*
X88785714Y-76454819D02*
X88452381Y-76835771D01*
X88452381Y-76835771D02*
X88595238Y-76835771D01*
X88595238Y-76835771D02*
X88690476Y-76883390D01*
X88690476Y-76883390D02*
X88738095Y-76931009D01*
X88738095Y-76931009D02*
X88785714Y-77026247D01*
X88785714Y-77026247D02*
X88785714Y-77264342D01*
X88785714Y-77264342D02*
X88738095Y-77359580D01*
X88738095Y-77359580D02*
X88690476Y-77407200D01*
X88690476Y-77407200D02*
X88595238Y-77454819D01*
X88595238Y-77454819D02*
X88309524Y-77454819D01*
X88309524Y-77454819D02*
X88214286Y-77407200D01*
X88214286Y-77407200D02*
X88166667Y-77359580D01*
X91261905Y-70734819D02*
X91261905Y-69734819D01*
X91261905Y-69734819D02*
X91500000Y-69734819D01*
X91500000Y-69734819D02*
X91642857Y-69782438D01*
X91642857Y-69782438D02*
X91738095Y-69877676D01*
X91738095Y-69877676D02*
X91785714Y-69972914D01*
X91785714Y-69972914D02*
X91833333Y-70163390D01*
X91833333Y-70163390D02*
X91833333Y-70306247D01*
X91833333Y-70306247D02*
X91785714Y-70496723D01*
X91785714Y-70496723D02*
X91738095Y-70591961D01*
X91738095Y-70591961D02*
X91642857Y-70687200D01*
X91642857Y-70687200D02*
X91500000Y-70734819D01*
X91500000Y-70734819D02*
X91261905Y-70734819D01*
X92214286Y-69830057D02*
X92261905Y-69782438D01*
X92261905Y-69782438D02*
X92357143Y-69734819D01*
X92357143Y-69734819D02*
X92595238Y-69734819D01*
X92595238Y-69734819D02*
X92690476Y-69782438D01*
X92690476Y-69782438D02*
X92738095Y-69830057D01*
X92738095Y-69830057D02*
X92785714Y-69925295D01*
X92785714Y-69925295D02*
X92785714Y-70020533D01*
X92785714Y-70020533D02*
X92738095Y-70163390D01*
X92738095Y-70163390D02*
X92166667Y-70734819D01*
X92166667Y-70734819D02*
X92785714Y-70734819D01*
X47454819Y-50388094D02*
X46454819Y-50388094D01*
X46454819Y-50388094D02*
X46454819Y-50149999D01*
X46454819Y-50149999D02*
X46502438Y-50007142D01*
X46502438Y-50007142D02*
X46597676Y-49911904D01*
X46597676Y-49911904D02*
X46692914Y-49864285D01*
X46692914Y-49864285D02*
X46883390Y-49816666D01*
X46883390Y-49816666D02*
X47026247Y-49816666D01*
X47026247Y-49816666D02*
X47216723Y-49864285D01*
X47216723Y-49864285D02*
X47311961Y-49911904D01*
X47311961Y-49911904D02*
X47407200Y-50007142D01*
X47407200Y-50007142D02*
X47454819Y-50149999D01*
X47454819Y-50149999D02*
X47454819Y-50388094D01*
X47454819Y-48864285D02*
X47454819Y-49435713D01*
X47454819Y-49149999D02*
X46454819Y-49149999D01*
X46454819Y-49149999D02*
X46597676Y-49245237D01*
X46597676Y-49245237D02*
X46692914Y-49340475D01*
X46692914Y-49340475D02*
X46740533Y-49435713D01*
X81209580Y-67691666D02*
X81257200Y-67739285D01*
X81257200Y-67739285D02*
X81304819Y-67882142D01*
X81304819Y-67882142D02*
X81304819Y-67977380D01*
X81304819Y-67977380D02*
X81257200Y-68120237D01*
X81257200Y-68120237D02*
X81161961Y-68215475D01*
X81161961Y-68215475D02*
X81066723Y-68263094D01*
X81066723Y-68263094D02*
X80876247Y-68310713D01*
X80876247Y-68310713D02*
X80733390Y-68310713D01*
X80733390Y-68310713D02*
X80542914Y-68263094D01*
X80542914Y-68263094D02*
X80447676Y-68215475D01*
X80447676Y-68215475D02*
X80352438Y-68120237D01*
X80352438Y-68120237D02*
X80304819Y-67977380D01*
X80304819Y-67977380D02*
X80304819Y-67882142D01*
X80304819Y-67882142D02*
X80352438Y-67739285D01*
X80352438Y-67739285D02*
X80400057Y-67691666D01*
X80638152Y-66834523D02*
X81304819Y-66834523D01*
X80257200Y-67072618D02*
X80971485Y-67310713D01*
X80971485Y-67310713D02*
X80971485Y-66691666D01*
X84308333Y-64009580D02*
X84260714Y-64057200D01*
X84260714Y-64057200D02*
X84117857Y-64104819D01*
X84117857Y-64104819D02*
X84022619Y-64104819D01*
X84022619Y-64104819D02*
X83879762Y-64057200D01*
X83879762Y-64057200D02*
X83784524Y-63961961D01*
X83784524Y-63961961D02*
X83736905Y-63866723D01*
X83736905Y-63866723D02*
X83689286Y-63676247D01*
X83689286Y-63676247D02*
X83689286Y-63533390D01*
X83689286Y-63533390D02*
X83736905Y-63342914D01*
X83736905Y-63342914D02*
X83784524Y-63247676D01*
X83784524Y-63247676D02*
X83879762Y-63152438D01*
X83879762Y-63152438D02*
X84022619Y-63104819D01*
X84022619Y-63104819D02*
X84117857Y-63104819D01*
X84117857Y-63104819D02*
X84260714Y-63152438D01*
X84260714Y-63152438D02*
X84308333Y-63200057D01*
X84641667Y-63104819D02*
X85260714Y-63104819D01*
X85260714Y-63104819D02*
X84927381Y-63485771D01*
X84927381Y-63485771D02*
X85070238Y-63485771D01*
X85070238Y-63485771D02*
X85165476Y-63533390D01*
X85165476Y-63533390D02*
X85213095Y-63581009D01*
X85213095Y-63581009D02*
X85260714Y-63676247D01*
X85260714Y-63676247D02*
X85260714Y-63914342D01*
X85260714Y-63914342D02*
X85213095Y-64009580D01*
X85213095Y-64009580D02*
X85165476Y-64057200D01*
X85165476Y-64057200D02*
X85070238Y-64104819D01*
X85070238Y-64104819D02*
X84784524Y-64104819D01*
X84784524Y-64104819D02*
X84689286Y-64057200D01*
X84689286Y-64057200D02*
X84641667Y-64009580D01*
%TO.C,R3*%
D11*
X83910000Y-61189564D02*
X83910000Y-59735436D01*
X82090000Y-61189564D02*
X82090000Y-59735436D01*
%TO.C,R2*%
X91689564Y-49590000D02*
X90235436Y-49590000D01*
X91689564Y-51410000D02*
X90235436Y-51410000D01*
%TO.C,J2*%
X70920000Y-56120000D02*
X70920000Y-57500000D01*
X69540000Y-56120000D02*
X70920000Y-56120000D01*
X68270000Y-56120000D02*
X65620000Y-56120000D01*
X68270000Y-56120000D02*
X68270000Y-58880000D01*
X65620000Y-56120000D02*
X65620000Y-58880000D01*
X68270000Y-58880000D02*
X65620000Y-58880000D01*
%TO.C,J3*%
X50380000Y-60920000D02*
X49000000Y-60920000D01*
X50380000Y-59540000D02*
X50380000Y-60920000D01*
X50380000Y-58270000D02*
X50380000Y-55620000D01*
X50380000Y-58270000D02*
X47620000Y-58270000D01*
X50380000Y-55620000D02*
X47620000Y-55620000D01*
X47620000Y-58270000D02*
X47620000Y-55620000D01*
%TO.C,C1*%
X63410000Y-50211252D02*
X63410000Y-48788748D01*
X61590000Y-50211252D02*
X61590000Y-48788748D01*
%TO.C,C2*%
X60410000Y-48763748D02*
X60410000Y-50186252D01*
X58590000Y-48763748D02*
X58590000Y-50186252D01*
%TO.C,R4*%
X92264564Y-67910000D02*
X90810436Y-67910000D01*
X92264564Y-66090000D02*
X90810436Y-66090000D01*
%TO.C,U1*%
X56650000Y-58090000D02*
X60410000Y-58090000D01*
X56650000Y-64910000D02*
X60410000Y-64910000D01*
X60410000Y-58090000D02*
X60410000Y-59350000D01*
X60410000Y-64910000D02*
X60410000Y-63650000D01*
X55370000Y-58190000D02*
X55130000Y-57860000D01*
X55610000Y-57860000D01*
X55370000Y-58190000D01*
G36*
X55370000Y-58190000D02*
G01*
X55130000Y-57860000D01*
X55610000Y-57860000D01*
X55370000Y-58190000D01*
G37*
%TO.C,R5*%
X83310436Y-69090000D02*
X84764564Y-69090000D01*
X83310436Y-70910000D02*
X84764564Y-70910000D01*
%TO.C,R1*%
X78727064Y-51910000D02*
X77272936Y-51910000D01*
X78727064Y-50090000D02*
X77272936Y-50090000D01*
%TO.C,Q1*%
X70510000Y-48177500D02*
X70510000Y-49697500D01*
X70460000Y-48177500D02*
X70510000Y-48177500D01*
X68560000Y-48177500D02*
X69340000Y-48177500D01*
X67390000Y-48177500D02*
X67440000Y-48177500D01*
X70510000Y-49697500D02*
X69510000Y-49697500D01*
X68390000Y-49697500D02*
X67390000Y-49697500D01*
X67390000Y-49697500D02*
X67390000Y-48177500D01*
X69330000Y-47637500D02*
X69000000Y-47877500D01*
X69000000Y-47397500D01*
X69330000Y-47637500D01*
G36*
X69330000Y-47637500D02*
G01*
X69000000Y-47877500D01*
X69000000Y-47397500D01*
X69330000Y-47637500D01*
G37*
%TO.C,J1*%
X91080000Y-63420000D02*
X89380000Y-63420000D01*
X91080000Y-54080000D02*
X89380000Y-54080000D01*
%TO.C,F1*%
X75102064Y-46910000D02*
X73897936Y-46910000D01*
X75102064Y-45090000D02*
X73897936Y-45090000D01*
%TO.C,D3*%
X89715000Y-74365000D02*
X89715000Y-76635000D01*
X89715000Y-76635000D02*
X93600000Y-76635000D01*
X93600000Y-74365000D02*
X89715000Y-74365000D01*
%TO.C,D2*%
X89715000Y-70975000D02*
X89715000Y-73245000D01*
X89715000Y-73245000D02*
X93600000Y-73245000D01*
X93600000Y-70975000D02*
X89715000Y-70975000D01*
%TO.C,D1*%
X47850000Y-53310000D02*
X52150000Y-53310000D01*
X47850000Y-53310000D02*
X47850000Y-47500000D01*
X52150000Y-53310000D02*
X52150000Y-47500000D01*
%TO.C,C4*%
X79910000Y-66813748D02*
X79910000Y-68236252D01*
X78090000Y-66813748D02*
X78090000Y-68236252D01*
%TO.C,C3*%
X83763748Y-64590000D02*
X85186252Y-64590000D01*
X83763748Y-66410000D02*
X85186252Y-66410000D01*
%TD*%
M02*
